<?xml version="1.0" encoding="UTF-8" standalone="no"?>
<svg
   xmlns:dc="http://purl.org/dc/elements/1.1/"
   xmlns:cc="http://creativecommons.org/ns#"
   xmlns:rdf="http://www.w3.org/1999/02/22-rdf-syntax-ns#"
   xmlns:svg="http://www.w3.org/2000/svg"
   xmlns="http://www.w3.org/2000/svg"
   xmlns:sodipodi="http://sodipodi.sourceforge.net/DTD/sodipodi-0.dtd"
   xmlns:inkscape="http://www.inkscape.org/namespaces/inkscape"
   id="svg8"
   version="1.1"
   viewBox="0 0 210 297"
   height="297mm"
   width="210mm"
   sodipodi:docname="LL.svg"
   inkscape:version="0.92.5 (2060ec1f9f, 2020-04-08)">
  <sodipodi:namedview
     pagecolor="#ffffff"
     bordercolor="#666666"
     borderopacity="1"
     objecttolerance="10"
     gridtolerance="10"
     guidetolerance="10"
     inkscape:pageopacity="0"
     inkscape:pageshadow="2"
     inkscape:window-width="1294"
     inkscape:window-height="704"
     id="namedview820"
     showgrid="false"
     inkscape:zoom="0.23429433"
     inkscape:cx="8.4030115"
     inkscape:cy="857.70256"
     inkscape:window-x="72"
     inkscape:window-y="27"
     inkscape:window-maximized="1"
     inkscape:current-layer="svg8" />
  <defs
     id="defs2">
    <clipPath
       clipPathUnits="userSpaceOnUse"
       id="clipPath840">
      <rect
         style="fill:#0000ff;fill-opacity:1;stroke:none;stroke-width:0.26458332;stroke-opacity:1"
         id="rect842"
         width="125.66921"
         height="35.255611"
         x="37.981438"
         y="157.01729" />
    </clipPath>
    <clipPath
       clipPathUnits="userSpaceOnUse"
       id="clipPath846">
      <rect
         style="fill:#0000ff;fill-opacity:1;stroke:none;stroke-width:0.26458332;stroke-opacity:1"
         id="rect848"
         width="142.13652"
         height="31.94079"
         x="25.923515"
         y="126.05109" />
    </clipPath>
    <clipPath
       clipPathUnits="userSpaceOnUse"
       id="clipPath856">
      <rect
         style="fill:#0000ff;fill-opacity:1;stroke:none;stroke-width:0.26458332;stroke-opacity:1"
         id="rect858"
         width="158.09886"
         height="20.891634"
         x="20.326998"
         y="105.58746" />
    </clipPath>
    <clipPath
       clipPathUnits="userSpaceOnUse"
       id="clipPath862">
      <rect
         style="fill:#0000ff;fill-opacity:1;stroke:none;stroke-width:0.26458332;stroke-opacity:1"
         id="rect864"
         width="167.68916"
         height="23.556334"
         x="9.8077059"
         y="81.345749" />
    </clipPath>
  </defs>
  <metadata
     id="metadata5">
    <rdf:RDF>
      <cc:Work
         rdf:about="">
        <dc:format>image/svg+xml</dc:format>
        <dc:type
           rdf:resource="http://purl.org/dc/dcmitype/StillImage" />
        <dc:title></dc:title>
      </cc:Work>
    </rdf:RDF>
  </metadata>
  <g
     style="fill:#800080"
     transform="translate(-814.7157,157.36287)"
     id="g852">
    <path
       inkscape:connector-curvature="0"
       style="fill:#800080;stroke-width:0.53661984"
       d="m 74.210078,180.99701 c -9.117376,-0.66017 -16.487957,-1.47514 -24.557204,-2.71528 -6.626608,-1.01841 -7.411116,-1.25207 -7.635973,-2.27441 -0.365148,-1.66018 -1.88218,-14.00555 -1.88218,-15.3169 v -1.11614 h 59.296504 c 57.457555,0 59.296485,0.031 59.296485,0.99841 0,1.34683 -1.67635,15.86655 -1.85327,16.05219 -0.89604,0.94015 -20.89632,3.53803 -33.78109,4.38786 -9.67707,0.63827 -39.985853,0.62852 -48.883272,-0.0163 z M 38.087297,156.20562 c -0.312939,-0.37709 -0.952826,-4.18037 -1.421981,-8.45177 -0.469158,-4.27142 -1.087179,-9.81876 -1.373389,-12.32746 -0.286211,-2.5087 -0.521065,-5.22534 -0.521895,-6.03697 l -0.0016,-1.47571 H 99.50766 164.2468 l -0.31925,3.08557 c -0.17563,1.69705 -0.71375,7.65354 -1.19591,13.23662 -0.60065,6.95506 -1.13498,10.54527 -1.69709,11.40317 l -0.82042,1.2521 H 99.435201 c -48.668226,0 -60.892301,-0.1367 -61.347904,-0.68555 z m -6.460513,-32.98733 c -0.872437,-0.73536 -1.351013,-2.37432 -2.205931,-7.55462 -0.600475,-3.63857 -1.091771,-6.72029 -1.091771,-6.84831 0,-0.12797 31.875221,-0.21547 70.833816,-0.19429 66.139342,0.0359 70.833062,0.0986 70.822502,0.94547 -0.006,0.49887 -0.44926,3.62823 -0.98449,6.95412 -0.73462,4.56491 -1.22508,6.2377 -2.001,6.82483 -0.88458,0.66936 -10.31267,0.78014 -67.643401,0.79483 -62.675663,0.0163 -66.681463,-0.0385 -67.729725,-0.92201 z m -5.393083,-20.9659 c 0.470815,-0.20058 2.208272,-1.83156 3.86101,-3.62434 l 3.004985,-3.25959 4.993214,-0.924504 c 2.74627,-0.508463 8.132442,-1.504877 11.969275,-2.214254 3.836834,-0.709376 14.206963,-2.629828 23.044731,-4.267676 l 16.068686,-2.977908 h 10.840648 c 8.5665,0 12.00621,0.222522 16.39681,1.060756 3.05591,0.583408 11.35168,2.167288 18.43508,3.519716 11.07431,2.114401 22.98232,4.341113 29.07594,5.436933 1.19779,0.215411 2.48079,1.195911 4.29297,3.280805 1.42154,1.635453 2.9037,3.296812 3.29372,3.691902 0.59229,0.60001 -11.38655,0.71213 -72.711993,0.68063 -40.381613,-0.0207 -73.03589,-0.2018 -72.565076,-0.40247 z"
       id="path850" />
  </g>
  <g
     transform="translate(16.063927,-21.604728)"
     id="g824"
     style="fill:#ff0000"
     clip-path="url(#clipPath840)">
    <path
       inkscape:connector-curvature="0"
       style="fill:#ff0000;stroke-width:0.53661984"
       d="m 74.210078,180.99701 c -9.117376,-0.66017 -16.487957,-1.47514 -24.557204,-2.71528 -6.626608,-1.01841 -7.411116,-1.25207 -7.635973,-2.27441 -0.365148,-1.66018 -1.88218,-14.00555 -1.88218,-15.3169 v -1.11614 h 59.296504 c 57.457555,0 59.296485,0.031 59.296485,0.99841 0,1.34683 -1.67635,15.86655 -1.85327,16.05219 -0.89604,0.94015 -20.89632,3.53803 -33.78109,4.38786 -9.67707,0.63827 -39.985853,0.62852 -48.883272,-0.0163 z M 38.087297,156.20562 c -0.312939,-0.37709 -0.952826,-4.18037 -1.421981,-8.45177 -0.469158,-4.27142 -1.087179,-9.81876 -1.373389,-12.32746 -0.286211,-2.5087 -0.521065,-5.22534 -0.521895,-6.03697 l -0.0016,-1.47571 H 99.50766 164.2468 l -0.31925,3.08557 c -0.17563,1.69705 -0.71375,7.65354 -1.19591,13.23662 -0.60065,6.95506 -1.13498,10.54527 -1.69709,11.40317 l -0.82042,1.2521 H 99.435201 c -48.668226,0 -60.892301,-0.1367 -61.347904,-0.68555 z m -6.460513,-32.98733 c -0.872437,-0.73536 -1.351013,-2.37432 -2.205931,-7.55462 -0.600475,-3.63857 -1.091771,-6.72029 -1.091771,-6.84831 0,-0.12797 31.875221,-0.21547 70.833816,-0.19429 66.139342,0.0359 70.833062,0.0986 70.822502,0.94547 -0.006,0.49887 -0.44926,3.62823 -0.98449,6.95412 -0.73462,4.56491 -1.22508,6.2377 -2.001,6.82483 -0.88458,0.66936 -10.31267,0.78014 -67.643401,0.79483 -62.675663,0.0163 -66.681463,-0.0385 -67.729725,-0.92201 z m -5.393083,-20.9659 c 0.470815,-0.20058 2.208272,-1.83156 3.86101,-3.62434 l 3.004985,-3.25959 4.993214,-0.924504 c 2.74627,-0.508463 8.132442,-1.504877 11.969275,-2.214254 3.836834,-0.709376 14.206963,-2.629828 23.044731,-4.267676 l 16.068686,-2.977908 h 10.840648 c 8.5665,0 12.00621,0.222522 16.39681,1.060756 3.05591,0.583408 11.35168,2.167288 18.43508,3.519716 11.07431,2.114401 22.98232,4.341113 29.07594,5.436933 1.19779,0.215411 2.48079,1.195911 4.29297,3.280805 1.42154,1.635453 2.9037,3.296812 3.29372,3.691902 0.59229,0.60001 -11.38655,0.71213 -72.711993,0.68063 -40.381613,-0.0207 -73.03589,-0.2018 -72.565076,-0.40247 z"
       id="path822" />
  </g>
</svg>
