<?xml version="1.0" encoding="UTF-8" standalone="no"?>
<svg
   xmlns:dc="http://purl.org/dc/elements/1.1/"
   xmlns:cc="http://creativecommons.org/ns#"
   xmlns:rdf="http://www.w3.org/1999/02/22-rdf-syntax-ns#"
   xmlns:svg="http://www.w3.org/2000/svg"
   xmlns="http://www.w3.org/2000/svg"
   xmlns:sodipodi="http://sodipodi.sourceforge.net/DTD/sodipodi-0.dtd"
   xmlns:inkscape="http://www.inkscape.org/namespaces/inkscape"
   id="svg8"
   version="1.1"
   viewBox="0 0 145.30257 96.502251"
   height="96.502251mm"
   width="145.30257mm"
   sodipodi:docname="reservatorio.svg"
   inkscape:version="0.92.5 (2060ec1f9f, 2020-04-08)">
  <sodipodi:namedview
     pagecolor="#ffffff"
     bordercolor="#666666"
     borderopacity="1"
     objecttolerance="10"
     gridtolerance="10"
     guidetolerance="10"
     inkscape:pageopacity="0"
     inkscape:pageshadow="2"
     inkscape:window-width="1294"
     inkscape:window-height="704"
     id="namedview820"
     showgrid="false"
     inkscape:zoom="0.66268444"
     inkscape:cx="212.41485"
     inkscape:cy="260.57035"
     inkscape:window-x="72"
     inkscape:window-y="27"
     inkscape:window-maximized="1"
     inkscape:current-layer="svg8" />
  <defs
     id="defs2">
    <clipPath
       clipPathUnits="userSpaceOnUse"
       id="clipPath840">
      <rect
         style="fill:#0000ff;fill-opacity:1;stroke:none;stroke-width:0.26458332;stroke-opacity:1"
         id="rect842"
         width="125.66921"
         height="35.255611"
         x="37.981438"
         y="157.01729" />
    </clipPath>
    <clipPath
       clipPathUnits="userSpaceOnUse"
       id="clipPath846">
      <rect
         style="fill:#0000ff;fill-opacity:1;stroke:none;stroke-width:0.26458332;stroke-opacity:1"
         id="rect848"
         width="142.13652"
         height="31.94079"
         x="25.923515"
         y="126.05109" />
    </clipPath>
    <clipPath
       clipPathUnits="userSpaceOnUse"
       id="clipPath856">
      <rect
         style="fill:#0000ff;fill-opacity:1;stroke:none;stroke-width:0.26458332;stroke-opacity:1"
         id="rect858"
         width="158.09886"
         height="20.891634"
         x="20.326998"
         y="105.58746" />
    </clipPath>
    <clipPath
       clipPathUnits="userSpaceOnUse"
       id="clipPath862">
      <rect
         style="fill:#0000ff;fill-opacity:1;stroke:none;stroke-width:0.26458332;stroke-opacity:1"
         id="rect864"
         width="167.68916"
         height="23.556334"
         x="9.8077059"
         y="81.345749" />
    </clipPath>
  </defs>
  <metadata
     id="metadata5">
    <rdf:RDF>
      <cc:Work
         rdf:about="">
        <dc:format>image/svg+xml</dc:format>
        <dc:type
           rdf:resource="http://purl.org/dc/dcmitype/StillImage" />
        <dc:title></dc:title>
      </cc:Work>
    </rdf:RDF>
  </metadata>
  <g
     style="fill:#800080"
     transform="translate(-849.10336,36.390894)"
     id="g852">
    <path
       inkscape:connector-curvature="0"
       style="fill:#800080;stroke-width:0.53661984"
       d="m 74.210078,180.99701 c -9.117376,-0.66017 -16.487957,-1.47514 -24.557204,-2.71528 -6.626608,-1.01841 -7.411116,-1.25207 -7.635973,-2.27441 -0.365148,-1.66018 -1.88218,-14.00555 -1.88218,-15.3169 v -1.11614 h 59.296504 c 57.457555,0 59.296485,0.031 59.296485,0.99841 0,1.34683 -1.67635,15.86655 -1.85327,16.05219 -0.89604,0.94015 -20.89632,3.53803 -33.78109,4.38786 -9.67707,0.63827 -39.985853,0.62852 -48.883272,-0.0163 z M 38.087297,156.20562 c -0.312939,-0.37709 -0.952826,-4.18037 -1.421981,-8.45177 -0.469158,-4.27142 -1.087179,-9.81876 -1.373389,-12.32746 -0.286211,-2.5087 -0.521065,-5.22534 -0.521895,-6.03697 l -0.0016,-1.47571 H 99.50766 164.2468 l -0.31925,3.08557 c -0.17563,1.69705 -0.71375,7.65354 -1.19591,13.23662 -0.60065,6.95506 -1.13498,10.54527 -1.69709,11.40317 l -0.82042,1.2521 H 99.435201 c -48.668226,0 -60.892301,-0.1367 -61.347904,-0.68555 z m -6.460513,-32.98733 c -0.872437,-0.73536 -1.351013,-2.37432 -2.205931,-7.55462 -0.600475,-3.63857 -1.091771,-6.72029 -1.091771,-6.84831 0,-0.12797 31.875221,-0.21547 70.833816,-0.19429 66.139342,0.0359 70.833062,0.0986 70.822502,0.94547 -0.006,0.49887 -0.44926,3.62823 -0.98449,6.95412 -0.73462,4.56491 -1.22508,6.2377 -2.001,6.82483 -0.88458,0.66936 -10.31267,0.78014 -67.643401,0.79483 -62.675663,0.0163 -66.681463,-0.0385 -67.729725,-0.92201 z m -5.393083,-20.9659 c 0.470815,-0.20058 2.208272,-1.83156 3.86101,-3.62434 l 3.004985,-3.25959 4.993214,-0.924504 c 2.74627,-0.508463 8.132442,-1.504877 11.969275,-2.214254 3.836834,-0.709376 14.206963,-2.629828 23.044731,-4.267676 l 16.068686,-2.977908 h 10.840648 c 8.5665,0 12.00621,0.222522 16.39681,1.060756 3.05591,0.583408 11.35168,2.167288 18.43508,3.519716 11.07431,2.114401 22.98232,4.341113 29.07594,5.436933 1.19779,0.215411 2.48079,1.195911 4.29297,3.280805 1.42154,1.635453 2.9037,3.296812 3.29372,3.691902 0.59229,0.60001 -11.38655,0.71213 -72.711993,0.68063 -40.381613,-0.0207 -73.03589,-0.2018 -72.565076,-0.40247 z"
       id="path850" />
  </g>
  <g
     id="g1692">
    <g
       clip-path="url(#clipPath840)"
       style="fill:#ff0000"
       id="g824"
       transform="translate(-26.228673,-84.983548)">
      <path
         id="path822"
         d="m 74.210078,180.99701 c -9.117376,-0.66017 -16.487957,-1.47514 -24.557204,-2.71528 -6.626608,-1.01841 -7.411116,-1.25207 -7.635973,-2.27441 -0.365148,-1.66018 -1.88218,-14.00555 -1.88218,-15.3169 v -1.11614 h 59.296504 c 57.457555,0 59.296485,0.031 59.296485,0.99841 0,1.34683 -1.67635,15.86655 -1.85327,16.05219 -0.89604,0.94015 -20.89632,3.53803 -33.78109,4.38786 -9.67707,0.63827 -39.985853,0.62852 -48.883272,-0.0163 z M 38.087297,156.20562 c -0.312939,-0.37709 -0.952826,-4.18037 -1.421981,-8.45177 -0.469158,-4.27142 -1.087179,-9.81876 -1.373389,-12.32746 -0.286211,-2.5087 -0.521065,-5.22534 -0.521895,-6.03697 l -0.0016,-1.47571 H 99.50766 164.2468 l -0.31925,3.08557 c -0.17563,1.69705 -0.71375,7.65354 -1.19591,13.23662 -0.60065,6.95506 -1.13498,10.54527 -1.69709,11.40317 l -0.82042,1.2521 H 99.435201 c -48.668226,0 -60.892301,-0.1367 -61.347904,-0.68555 z m -6.460513,-32.98733 c -0.872437,-0.73536 -1.351013,-2.37432 -2.205931,-7.55462 -0.600475,-3.63857 -1.091771,-6.72029 -1.091771,-6.84831 0,-0.12797 31.875221,-0.21547 70.833816,-0.19429 66.139342,0.0359 70.833062,0.0986 70.822502,0.94547 -0.006,0.49887 -0.44926,3.62823 -0.98449,6.95412 -0.73462,4.56491 -1.22508,6.2377 -2.001,6.82483 -0.88458,0.66936 -10.31267,0.78014 -67.643401,0.79483 -62.675663,0.0163 -66.681463,-0.0385 -67.729725,-0.92201 z m -5.393083,-20.9659 c 0.470815,-0.20058 2.208272,-1.83156 3.86101,-3.62434 l 3.004985,-3.25959 4.993214,-0.924504 c 2.74627,-0.508463 8.132442,-1.504877 11.969275,-2.214254 3.836834,-0.709376 14.206963,-2.629828 23.044731,-4.267676 l 16.068686,-2.977908 h 10.840648 c 8.5665,0 12.00621,0.222522 16.39681,1.060756 3.05591,0.583408 11.35168,2.167288 18.43508,3.519716 11.07431,2.114401 22.98232,4.341113 29.07594,5.436933 1.19779,0.215411 2.48079,1.195911 4.29297,3.280805 1.42154,1.635453 2.9037,3.296812 3.29372,3.691902 0.59229,0.60001 -11.38655,0.71213 -72.711993,0.68063 -40.381613,-0.0207 -73.03589,-0.2018 -72.565076,-0.40247 z"
         style="fill:#ff0000;stroke-width:0.53661984"
         inkscape:connector-curvature="0" />
    </g>
    <g
       aria-label="1/4"
       style="font-style:normal;font-weight:normal;font-size:10.58333397px;line-height:1.25;font-family:sans-serif;letter-spacing:0px;word-spacing:0px;fill:#000000;fill-opacity:1;stroke:none;stroke-width:0.26458335"
       id="text1596">
      <path
         d="m 67.099454,86.756213 h 1.705323 v -5.885946 l -1.855184,0.37207 v -0.950846 l 1.844848,-0.372071 h 1.043864 v 6.836793 h 1.705323 v 0.878499 h -4.444174 z"
         style="stroke-width:0.26458335"
         id="path1694" />
      <path
         d="m 75.207487,79.91942 h 0.878499 l -2.687174,8.697144 h -0.8785 z"
         style="stroke-width:0.26458335"
         id="path1696" />
      <path
         d="m 80.085742,80.828926 -2.635498,4.118612 h 2.635498 z M 79.811857,79.91942 h 1.312582 v 5.028118 h 1.100708 v 0.868164 h -1.100708 v 1.81901 h -1.038697 v -1.81901 H 76.60275 v -1.007691 z"
         style="stroke-width:0.26458335"
         id="path1698" />
    </g>
  </g>
  <g
     id="g1686">
    <g
       clip-path="url(#clipPath846)"
       style="fill:#ffff00;fill-opacity:1"
       transform="translate(-26.228673,-84.983548)"
       id="layer1">
      <path
         inkscape:connector-curvature="0"
         style="fill:#ffff00;stroke-width:0.53661984;fill-opacity:1"
         d="m 74.210078,180.99701 c -9.117376,-0.66017 -16.487957,-1.47514 -24.557204,-2.71528 -6.626608,-1.01841 -7.411116,-1.25207 -7.635973,-2.27441 -0.365148,-1.66018 -1.88218,-14.00555 -1.88218,-15.3169 v -1.11614 h 59.296504 c 57.457555,0 59.296485,0.031 59.296485,0.99841 0,1.34683 -1.67635,15.86655 -1.85327,16.05219 -0.89604,0.94015 -20.89632,3.53803 -33.78109,4.38786 -9.67707,0.63827 -39.985853,0.62852 -48.883272,-0.0163 z M 38.087297,156.20562 c -0.312939,-0.37709 -0.952826,-4.18037 -1.421981,-8.45177 -0.469158,-4.27142 -1.087179,-9.81876 -1.373389,-12.32746 -0.286211,-2.5087 -0.521065,-5.22534 -0.521895,-6.03697 l -0.0016,-1.47571 H 99.50766 164.2468 l -0.31925,3.08557 c -0.17563,1.69705 -0.71375,7.65354 -1.19591,13.23662 -0.60065,6.95506 -1.13498,10.54527 -1.69709,11.40317 l -0.82042,1.2521 H 99.435201 c -48.668226,0 -60.892301,-0.1367 -61.347904,-0.68555 z m -6.460513,-32.98733 c -0.872437,-0.73536 -1.351013,-2.37432 -2.205931,-7.55462 -0.600475,-3.63857 -1.091771,-6.72029 -1.091771,-6.84831 0,-0.12797 31.875221,-0.21547 70.833816,-0.19429 66.139342,0.0359 70.833062,0.0986 70.822502,0.94547 -0.006,0.49887 -0.44926,3.62823 -0.98449,6.95412 -0.73462,4.56491 -1.22508,6.2377 -2.001,6.82483 -0.88458,0.66936 -10.31267,0.78014 -67.643401,0.79483 -62.675663,0.0163 -66.681463,-0.0385 -67.729725,-0.92201 z m -5.393083,-20.9659 c 0.470815,-0.20058 2.208272,-1.83156 3.86101,-3.62434 l 3.004985,-3.25959 4.993214,-0.924504 c 2.74627,-0.508463 8.132442,-1.504877 11.969275,-2.214254 3.836834,-0.709376 14.206963,-2.629828 23.044731,-4.267676 l 16.068686,-2.977908 h 10.840648 c 8.5665,0 12.00621,0.222522 16.39681,1.060756 3.05591,0.583408 11.35168,2.167288 18.43508,3.519716 11.07431,2.114401 22.98232,4.341113 29.07594,5.436933 1.19779,0.215411 2.48079,1.195911 4.29297,3.280805 1.42154,1.635453 2.9037,3.296812 3.29372,3.691902 0.59229,0.60001 -11.38655,0.71213 -72.711993,0.68063 -40.381613,-0.0207 -73.03589,-0.2018 -72.565076,-0.40247 z"
         id="path880" />
    </g>
    <g
       aria-label="2/4"
       style="font-style:normal;font-weight:normal;font-size:10.58333397px;line-height:1.25;font-family:sans-serif;letter-spacing:0px;word-spacing:0px;fill:#000000;fill-opacity:1;stroke:none;stroke-width:0.26458335"
       id="text1600">
      <path
         d="m 64.339855,59.595915 h 3.643189 v 0.8785 h -4.898926 v -0.8785 q 0.594279,-0.614949 1.617472,-1.648478 1.028361,-1.038696 1.291911,-1.33842 0.501262,-0.563273 0.697632,-0.950846 0.201538,-0.392741 0.201538,-0.769979 0,-0.614949 -0.434082,-1.002523 -0.428914,-0.387573 -1.121378,-0.387573 -0.490927,0 -1.038697,0.170532 -0.542602,0.170533 -1.16272,0.516765 v -1.0542 q 0.630453,-0.253214 1.178223,-0.382405 0.54777,-0.129191 1.002523,-0.129191 1.198893,0 1.912028,0.599446 0.713135,0.599447 0.713135,1.60197 0,0.475423 -0.180868,0.904337 -0.1757,0.423747 -0.645955,1.002523 -0.129191,0.149862 -0.821655,0.868164 -0.692465,0.713135 -1.95337,1.999878 z"
         style="stroke-width:0.26458335"
         id="path1701" />
      <path
         d="m 71.729585,52.759123 h 0.8785 l -2.687175,8.697144 h -0.878499 z"
         style="stroke-width:0.26458335"
         id="path1703" />
      <path
         d="m 76.607841,53.668628 -2.635498,4.118612 h 2.635498 z m -0.273885,-0.909505 h 1.312581 v 5.028117 h 1.100708 v 0.868164 h -1.100708 v 1.819011 h -1.038696 v -1.819011 h -3.482992 v -1.00769 z"
         style="stroke-width:0.26458335"
         id="path1705" />
    </g>
  </g>
  <g
     id="g1680">
    <g
       clip-path="url(#clipPath856)"
       style="fill:#008000"
       id="g828"
       transform="translate(-26.228673,-86.096948)">
      <path
         id="path826"
         d="m 74.210078,180.99701 c -9.117376,-0.66017 -16.487957,-1.47514 -24.557204,-2.71528 -6.626608,-1.01841 -7.411116,-1.25207 -7.635973,-2.27441 -0.365148,-1.66018 -1.88218,-14.00555 -1.88218,-15.3169 v -1.11614 h 59.296504 c 57.457555,0 59.296485,0.031 59.296485,0.99841 0,1.34683 -1.67635,15.86655 -1.85327,16.05219 -0.89604,0.94015 -20.89632,3.53803 -33.78109,4.38786 -9.67707,0.63827 -39.985853,0.62852 -48.883272,-0.0163 z M 38.087297,156.20562 c -0.312939,-0.37709 -0.952826,-4.18037 -1.421981,-8.45177 -0.469158,-4.27142 -1.087179,-9.81876 -1.373389,-12.32746 -0.286211,-2.5087 -0.521065,-5.22534 -0.521895,-6.03697 l -0.0016,-1.47571 H 99.50766 164.2468 l -0.31925,3.08557 c -0.17563,1.69705 -0.71375,7.65354 -1.19591,13.23662 -0.60065,6.95506 -1.13498,10.54527 -1.69709,11.40317 l -0.82042,1.2521 H 99.435201 c -48.668226,0 -60.892301,-0.1367 -61.347904,-0.68555 z m -6.460513,-32.98733 c -0.872437,-0.73536 -1.351013,-2.37432 -2.205931,-7.55462 -0.600475,-3.63857 -1.091771,-6.72029 -1.091771,-6.84831 0,-0.12797 31.875221,-0.21547 70.833816,-0.19429 66.139342,0.0359 70.833062,0.0986 70.822502,0.94547 -0.006,0.49887 -0.44926,3.62823 -0.98449,6.95412 -0.73462,4.56491 -1.22508,6.2377 -2.001,6.82483 -0.88458,0.66936 -10.31267,0.78014 -67.643401,0.79483 -62.675663,0.0163 -66.681463,-0.0385 -67.729725,-0.92201 z m -5.393083,-20.9659 c 0.470815,-0.20058 2.208272,-1.83156 3.86101,-3.62434 l 3.004985,-3.25959 4.993214,-0.924504 c 2.74627,-0.508463 8.132442,-1.504877 11.969275,-2.214254 3.836834,-0.709376 14.206963,-2.629828 23.044731,-4.267676 l 16.068686,-2.977908 h 10.840648 c 8.5665,0 12.00621,0.222522 16.39681,1.060756 3.05591,0.583408 11.35168,2.167288 18.43508,3.519716 11.07431,2.114401 22.98232,4.341113 29.07594,5.436933 1.19779,0.215411 2.48079,1.195911 4.29297,3.280805 1.42154,1.635453 2.9037,3.296812 3.29372,3.691902 0.59229,0.60001 -11.38655,0.71213 -72.711993,0.68063 -40.381613,-0.0207 -73.03589,-0.2018 -72.565076,-0.40247 z"
         style="fill:#008000;stroke-width:0.53661984"
         inkscape:connector-curvature="0" />
    </g>
    <g
       aria-label="3/4"
       style="font-style:normal;font-weight:normal;font-size:10.58333397px;line-height:1.25;font-family:sans-serif;letter-spacing:0px;word-spacing:0px;fill:#000000;fill-opacity:1;stroke:none;stroke-width:0.26458335"
       id="text1604">
      <path
         d="m 68.32338,29.212861 q 0.749308,0.160197 1.167887,0.666626 0.423747,0.506429 0.423747,1.25057 0,1.142049 -0.785482,1.767334 -0.785482,0.625285 -2.232422,0.625285 -0.485758,0 -1.002523,-0.09818 -0.511596,-0.09302 -1.059367,-0.284221 v -1.00769 q 0.434082,0.253214 0.950847,0.382405 0.516764,0.129191 1.080037,0.129191 0.981853,0 1.493449,-0.387573 0.516765,-0.387573 0.516765,-1.126546 0,-0.682129 -0.480591,-1.064535 -0.475423,-0.387573 -1.328085,-0.387573 h -0.89917 V 28.82012 h 0.940512 q 0.769978,0 1.178222,-0.304891 0.408244,-0.310058 0.408244,-0.888834 0,-0.594279 -0.423747,-0.909506 -0.418579,-0.320394 -1.204061,-0.320394 -0.428914,0 -0.91984,0.09302 -0.490926,0.09302 -1.080038,0.289388 v -0.930176 q 0.594279,-0.165364 1.111044,-0.248047 0.521932,-0.08268 0.981852,-0.08268 1.188558,0 1.881022,0.542603 0.692464,0.537434 0.692464,1.457275 0,0.640788 -0.366902,1.085205 -0.366903,0.43925 -1.043864,0.609782 z"
         style="stroke-width:0.26458335"
         id="path1708" />
      <path
         d="m 73.449682,25.657522 h 0.878499 l -2.687174,8.697144 h -0.8785 z"
         style="stroke-width:0.26458335"
         id="path1710" />
      <path
         d="m 78.327937,26.567028 -2.635498,4.118612 h 2.635498 z m -0.273885,-0.909506 h 1.312582 v 5.028118 h 1.100708 v 0.868164 h -1.100708 v 1.81901 h -1.038697 v -1.81901 h -3.482991 v -1.007691 z"
         style="stroke-width:0.26458335"
         id="path1712" />
    </g>
  </g>
  <g
     id="g1674">
    <g
       clip-path="url(#clipPath862)"
       style="fill:#0000ff"
       transform="translate(-26.228673,-85.10812)"
       id="g832">
      <path
         inkscape:connector-curvature="0"
         style="fill:#0000ff;stroke-width:0.53661984"
         d="m 74.210078,180.99701 c -9.117376,-0.66017 -16.487957,-1.47514 -24.557204,-2.71528 -6.626608,-1.01841 -7.411116,-1.25207 -7.635973,-2.27441 -0.365148,-1.66018 -1.88218,-14.00555 -1.88218,-15.3169 v -1.11614 h 59.296504 c 57.457555,0 59.296485,0.031 59.296485,0.99841 0,1.34683 -1.67635,15.86655 -1.85327,16.05219 -0.89604,0.94015 -20.89632,3.53803 -33.78109,4.38786 -9.67707,0.63827 -39.985853,0.62852 -48.883272,-0.0163 z M 38.087297,156.20562 c -0.312939,-0.37709 -0.952826,-4.18037 -1.421981,-8.45177 -0.469158,-4.27142 -1.087179,-9.81876 -1.373389,-12.32746 -0.286211,-2.5087 -0.521065,-5.22534 -0.521895,-6.03697 l -0.0016,-1.47571 H 99.50766 164.2468 l -0.31925,3.08557 c -0.17563,1.69705 -0.71375,7.65354 -1.19591,13.23662 -0.60065,6.95506 -1.13498,10.54527 -1.69709,11.40317 l -0.82042,1.2521 H 99.435201 c -48.668226,0 -60.892301,-0.1367 -61.347904,-0.68555 z m -6.460513,-32.98733 c -0.872437,-0.73536 -1.351013,-2.37432 -2.205931,-7.55462 -0.600475,-3.63857 -1.091771,-6.72029 -1.091771,-6.84831 0,-0.12797 31.875221,-0.21547 70.833816,-0.19429 66.139342,0.0359 70.833062,0.0986 70.822502,0.94547 -0.006,0.49887 -0.44926,3.62823 -0.98449,6.95412 -0.73462,4.56491 -1.22508,6.2377 -2.001,6.82483 -0.88458,0.66936 -10.31267,0.78014 -67.643401,0.79483 -62.675663,0.0163 -66.681463,-0.0385 -67.729725,-0.92201 z m -5.393083,-20.9659 c 0.470815,-0.20058 2.208272,-1.83156 3.86101,-3.62434 l 3.004985,-3.25959 4.993214,-0.924504 c 2.74627,-0.508463 8.132442,-1.504877 11.969275,-2.214254 3.836834,-0.709376 14.206963,-2.629828 23.044731,-4.267676 l 16.068686,-2.977908 h 10.840648 c 8.5665,0 12.00621,0.222522 16.39681,1.060756 3.05591,0.583408 11.35168,2.167288 18.43508,3.519716 11.07431,2.114401 22.98232,4.341113 29.07594,5.436933 1.19779,0.215411 2.48079,1.195911 4.29297,3.280805 1.42154,1.635453 2.9037,3.296812 3.29372,3.691902 0.59229,0.60001 -11.38655,0.71213 -72.711993,0.68063 -40.381613,-0.0207 -73.03589,-0.2018 -72.565076,-0.40247 z"
         id="path830" />
    </g>
    <g
       aria-label="4/4"
       style="font-style:normal;font-weight:normal;font-size:10.58333397px;line-height:1.25;font-family:sans-serif;letter-spacing:0px;word-spacing:0px;fill:#000000;fill-opacity:1;stroke:none;stroke-width:0.26458335"
       id="text1608">
      <path
         d="m 68.173523,6.3959137 -2.635498,4.1186123 h 2.635498 z M 67.899638,5.4864084 h 1.312582 v 5.0281176 h 1.100708 V 11.38269 H 69.21222 v 1.81901 h -1.038697 v -1.81901 h -3.482992 v -1.007691 z"
         style="stroke-width:0.26458335"
         id="path1715" />
      <path
         d="m 73.594381,5.4864084 h 0.8785 l -2.687175,8.6971436 h -0.878499 z"
         style="stroke-width:0.26458335"
         id="path1717" />
      <path
         d="m 78.472636,6.3959137 -2.635498,4.1186123 h 2.635498 z M 78.198751,5.4864084 h 1.312582 v 5.0281176 h 1.100708 v 0.868164 h -1.100708 v 1.81901 h -1.038697 v -1.81901 h -3.482991 v -1.007691 z"
         style="stroke-width:0.26458335"
         id="path1719" />
    </g>
  </g>
</svg>
